<svg width="49" height="49" xmlns="http://www.w3.org/2000/svg" xmlns:xlink="http://www.w3.org/1999/xlink" xml:space="preserve" overflow="hidden"><g transform="translate(-328 -880)"><g><g><g><g><path d="M368.258 902.292 369.326 902.619C368.263 895.41 362.607 889.748 355.4 888.677L355.746 889.748C362.125 890.908 367.114 895.909 368.258 902.292Z" stroke="#404040" stroke-width="0.666665" stroke-linecap="butt" stroke-linejoin="miter" stroke-miterlimit="4" stroke-opacity="1" fill="#000000" fill-rule="nonzero" fill-opacity="1"/><path d="M336.68 902.573 337.75 902.25C338.91 895.885 343.894 890.905 350.26 889.75L350.587 888.68C343.404 889.754 337.761 895.39 336.68 902.573Z" stroke="#404040" stroke-width="0.666665" stroke-linecap="butt" stroke-linejoin="miter" stroke-miterlimit="4" stroke-opacity="1" fill="#000000" fill-rule="nonzero" fill-opacity="1"/><path d="M350.193 920.24C343.874 919.065 338.931 914.12 337.758 907.8L336.682 907.45C337.768 914.6 343.374 920.216 350.522 921.313Z" stroke="#404040" stroke-width="0.666665" stroke-linecap="butt" stroke-linejoin="miter" stroke-miterlimit="4" stroke-opacity="1" fill="#000000" fill-rule="nonzero" fill-opacity="1"/><path d="M369.327 907.373 368.257 907.719C367.108 914.099 362.119 919.095 355.741 920.253L355.395 921.324C362.607 920.254 368.267 914.586 369.327 907.373Z" stroke="#404040" stroke-width="0.666665" stroke-linecap="butt" stroke-linejoin="miter" stroke-miterlimit="4" stroke-opacity="1" fill="#000000" fill-rule="nonzero" fill-opacity="1"/><path d="M366.9 903.444 359.333 900.982 361.751 896.292 357.036 898.695 354.6 891.091 353.6 887.991 353 886.041 352.35 888.041 351.4 891.141 349.008 898.708 344.3 896.292 346.71 901.006 339.15 903.395 336 904.344 334 904.995 336 905.645 339.05 906.645 346.674 909.044 344.25 913.747 348.943 911.273 351.35 918.9 352.3 922 352.95 924 353.6 922 354.6 918.9 357.05 911.25 361.75 913.7 359.336 909.024 366.85 906.595 369.95 905.595 371.95 904.945 370 904.395ZM366.543 905.644 358.872 908.121 357.867 906.174C357.767 906.614 357.607 907.038 357.392 907.434L359.414 911.35 355.553 909.336C355.183 909.558 354.787 909.731 354.372 909.85L356.15 910.777 353.65 918.591 352.959 920.733 352.305 918.597 349.842 910.8 351.639 909.853C351.226 909.735 350.829 909.564 350.46 909.344L346.595 911.381 348.62 907.45C348.404 907.056 348.243 906.635 348.141 906.198L347.141 908.14 339.362 905.695 337.265 905.008 339.45 904.35 347.171 901.911 348.154 903.835C348.261 903.402 348.426 902.986 348.645 902.597L346.6 898.597 350.608 900.654C351.005 900.439 351.43 900.278 351.87 900.177L349.91 899.171 352.357 891.434 352.992 889.36 353.65 891.396 356.133 899.155 354.128 900.177C354.569 900.278 354.995 900.438 355.392 900.654L359.443 898.592 357.369 902.614C357.586 903.003 357.749 903.421 357.854 903.854L358.871 901.883 366.608 904.4 368.55 904.996Z" stroke="#404040" stroke-width="0.666665" stroke-linecap="butt" stroke-linejoin="miter" stroke-miterlimit="4" stroke-opacity="1" fill="#000000" fill-rule="nonzero" fill-opacity="1"/><path d="M353 901.544C351.067 901.544 349.5 903.111 349.5 905.044 349.5 906.977 351.067 908.544 353 908.544 354.933 908.544 356.5 906.977 356.5 905.044 356.497 903.112 354.932 901.547 353 901.544ZM353 907.544C351.619 907.544 350.5 906.425 350.5 905.044 350.5 903.663 351.619 902.544 353 902.544 354.381 902.544 355.5 903.663 355.5 905.044 355.499 906.424 354.38 907.544 353 907.545Z" stroke="#404040" stroke-width="0.666665" stroke-linecap="butt" stroke-linejoin="miter" stroke-miterlimit="4" stroke-opacity="1" fill="#000000" fill-rule="nonzero" fill-opacity="1"/></g></g></g></g></g></svg>